# xmcd
#
# Track frame offsets:
#	225
#	19930
#	37495
#	52260
#	70560
#	88572
#	107565
#	127590
#	152617
#	170800
#	190597
#	208990
#	230762
#	251075
#	266875
#	287307
#	305807
#
# Disc length: 4336
#
# Revision: 1
# Processed by: cddbd v1.5.1PL0 Copyright (c) Steve Scherf et al.
# Submitted via: ExactAudioCopy v0.90b4
# Normalized: r0:DSETVAR1,TDELIM( - )
#
DISCID=fb10ed11
DTITLE=Various Artist - Platinum Rock and Pop Ballads
DYEAR=1900
DGENRE=Ballad
TTITLE0=No Doubt - Don't Speak
TTITLE1=Eric Clapton - Change The World
TTITLE2=The Cardigans - Lovefool
TTITLE3=Toni Braxton - You're Making Me High
TTITLE4=Rod Steward - If We Fall In Love Tonight
TTITLE5=East 17 feat. Gabrielle - If You Ever
TTITLE6=Eros Ramazzotti - Pui Bella Cosa
TTITLE7=Tina Turner - In Your Wildest Dreams
TTITLE8=Boy Zone - Words
TTITLE9=Phil Collins - Dance Into The Light
TTITLE10=Sarah Brightman - Time To Say Goodbye (Con Te Partiro)
TTITLE11=Zucchero - She's My Baby
TTITLE12=The Cranberries - When You're Gone
TTITLE13=Joe Cocker - Into The Mystic
TTITLE14=Cheril Crow - If It Makes You Happy
TTITLE15=R.E.M. - Bittersweet Me
TTITLE16=White Town - Your Woman
EXTD=
EXTT0=
EXTT1=
EXTT2=
EXTT3=
EXTT4=
EXTT5=
EXTT6=
EXTT7=
EXTT8=
EXTT9=
EXTT10=
EXTT11=
EXTT12=
EXTT13=
EXTT14=
EXTT15=
EXTT16=
PLAYORDER=
